<svg width="180" height="50" viewBox="0 0 180 50" fill="none" xmlns="http://www.w3.org/2000/svg">
<rect x="0.5" y="10.5" width="79" height="29" fill="#D7FDFF" stroke="black"/>
<rect x="100.5" y="10.5" width="79" height="29" stroke="black"/>
<line x1="90.5" x2="90.5" y2="50" stroke="black"/>
<path d="M147.2 34V37H132.8V34H128V16H132.8V13H147.2V16H152V34H147.2ZM144.8 18.25V16H135.2V34H144.8V18.25ZM147.2 19V31H149.6V19H147.2ZM132.8 19H130.4V31H132.8V19Z" fill="black"/>
<path d="M28 23.6667V13H38.6667V23.6667H28ZM28 37V26.3333H38.6667V37H28ZM41.3333 23.6667V13H52V23.6667H41.3333ZM41.3333 37V26.3333H52V37H41.3333ZM30.6667 21H36V15.6667H30.6667V21ZM44 21H49.3333V15.6667H44V21ZM44 34.3333H49.3333V29H44V34.3333ZM30.6667 34.3333H36V29H30.6667V34.3333Z" fill="black"/>
</svg>
